<?xml version="1.0" encoding="UTF-8" standalone="no"?>
<!DOCTYPE svg PUBLIC "-//W3C//DTD SVG 1.0//EN" "http://www.w3.org/TR/2001/REC-SVG-20010904/DTD/svg10.dtd">
<svg height="1024" width="1024" viewBox="0 0 1024 1024" xmlns="http://www.w3.org/2000/svg">
  <rect fill="#fff" height="1024" width="1024" rx="128" ry="128"/>
  <g transform="translate(15,29) scale(3.5,3.5) ">
    <path fill="#ccc" transform="translate(-8,287) scale(1,-1)" d="M59.94,263.44 L81.75,214.81 H30.13 L90.5,34.5 H209.5 L269.87,214.81 H218.25 L240.06,263.44Z"/>
  </g>
  <g transform="translate(256,224) scale(0.5,0.5)">
    <path fill="#fff" d="M723,768.4c33-5.2,60.4-20.4,82.2-45.601c21.8-25,32.8-54.8,32.8-89.2v-499c0-37-13.2-68.6-39.6-95 C771.8,13.2,739.4,0,701.2,0H322.8c-38.4,0-70.6,13.2-97,39.6c-26.4,26.4-39.6,58-39.6,95v499.2c0,34.4,11.2,64.4,33.8,90.2 c22.4,25.8,49.4,40.6,81.2,44.6L128.8,1024h97l16.6-24.6h539.4l16.4,24.6h97L723,768.4z M740.6,685.2C728.8,697,713.6,703,695.2,703 c-17.2,0-31.8-6-43.601-17.8c-11.8-12-17.8-27-17.8-45.601c0-17.199,6-32,17.8-44.6c11.801-12.6,26.4-18.8,43.601-18.8 c18.399,0,33.8,6.399,45.399,18.8c11.801,12.6,17.801,27.4,17.801,44.6C758.6,658.2,752.6,673.4,740.6,685.2z M269.4,147.2 c0-18.4,6-33.6,17.8-45.6c11.8-11.8,27-17.8,45.399-17.8H691.2c18.6,0,34,6,46.6,17.8c12.601,12,19,27.2,19,45.6V307 c0,18.6-6.2,33.8-19,45.6c-12.6,11.8-28,17.8-46.6,17.8H332.6c-18.6,0-33.8-5.8-45.399-17.8c-11.8-11.8-17.8-27-17.8-45.6V147.2z M283.2,685.2c-12-12-17.8-27-17.8-45.601c0-17.199,5.8-32,17.8-44.6s27-18.8,45.6-18.8c17,0,31.601,6.399,43.601,18.8 c11.8,12.6,17.8,27.4,17.8,44.6c0,18.601-6,33.601-17.8,45.601C360.4,697,345.8,703,328.8,703C310.2,703.2,295.2,697.2,283.2,685.2z M297.8,916.8l45-67.2H681.4l45,67.2H297.8z"/>
  </g>
</svg>
